<svg width="194" height="50" viewBox="0 0 194 50" fill="none" xmlns="http://www.w3.org/2000/svg">
<rect width="49.4765" height="49.4765" rx="24.7383" fill="url(#paint0_linear_22471_5488)"/>
<path d="M36.9046 17.8024V21.8152L26.3337 17.3059C24.9482 16.7149 23.3748 16.7527 22.0193 17.4095L15.503 20.5668V23.4204L22.0528 20.2468C23.3889 19.5994 24.9377 19.553 26.3101 20.1192L36.9046 24.4904V36.1722L26.2938 31.5717C24.9318 30.9811 23.3824 30.9999 22.0351 31.6233L12.2038 36.1722V31.7135L22.0771 27.2926C23.4006 26.6999 24.9113 26.686 26.2456 27.254L33.1594 30.1975V27.2548L26.3161 24.3413C24.9408 23.7558 23.3802 23.7894 22.0314 24.4336L12.2038 29.1275V17.8024L21.9246 13.0145C23.3341 12.3203 24.9817 12.2994 26.4082 12.9579L36.9046 17.8024Z" fill="white"/>
<path d="M68.6734 35.5195C67.2568 35.5195 65.9861 35.2695 64.8611 34.7696C63.7362 34.2488 62.8404 33.5509 62.1738 32.6759C61.528 31.801 61.1738 30.8323 61.1113 29.7698H65.5173C65.6007 30.4365 65.9236 30.9885 66.486 31.426C67.0693 31.8635 67.788 32.0822 68.6422 32.0822C69.4755 32.0822 70.1213 31.9155 70.5796 31.5822C71.0587 31.2489 71.2983 30.8219 71.2983 30.301C71.2983 29.7386 71.0066 29.3219 70.4233 29.0511C69.8609 28.7595 68.9547 28.447 67.7047 28.1137C66.4131 27.8012 65.3507 27.4783 64.5174 27.145C63.7049 26.8117 62.9966 26.3013 62.3925 25.6138C61.8092 24.9263 61.5176 23.9993 61.5176 22.8327C61.5176 21.8744 61.7884 20.9995 62.33 20.2078C62.8925 19.4162 63.6841 18.7912 64.7049 18.3329C65.7465 17.8746 66.9652 17.6455 68.3609 17.6455C70.4233 17.6455 72.0691 18.1663 73.2982 19.2079C74.5273 20.2287 75.2043 21.614 75.3293 23.3639H71.142C71.0795 22.6765 70.7879 22.1348 70.2671 21.739C69.7671 21.3224 69.0901 21.114 68.2359 21.114C67.4443 21.114 66.8298 21.2599 66.3923 21.5515C65.9756 21.8432 65.7673 22.2494 65.7673 22.7702C65.7673 23.3535 66.059 23.8014 66.6423 24.1139C67.2256 24.4055 68.1318 24.7076 69.3609 25.0201C70.6108 25.3326 71.642 25.6555 72.4545 25.9888C73.2669 26.3221 73.9648 26.8429 74.5481 27.5512C75.1522 28.2387 75.4647 29.1553 75.4856 30.301C75.4856 31.301 75.2043 32.1968 74.6418 32.9884C74.1002 33.78 73.3086 34.405 72.267 34.8633C71.2462 35.3008 70.0483 35.5195 68.6734 35.5195ZM84.1701 21.5203V29.8948C84.1701 30.4781 84.3056 30.9052 84.5764 31.176C84.868 31.426 85.3472 31.551 86.0138 31.551H88.0449V35.2383H85.2951C81.6078 35.2383 79.7641 33.4467 79.7641 29.8636V21.5203H77.7017V17.9267H79.7641V13.6457H84.1701V17.9267H88.0449V21.5203H84.1701ZM90.0666 26.52C90.0666 24.7701 90.4103 23.2181 91.0977 21.864C91.806 20.5099 92.7539 19.4683 93.9413 18.7392C95.1496 18.01 96.4933 17.6455 97.9724 17.6455C99.264 17.6455 100.389 17.9059 101.347 18.4267C102.326 18.9475 103.108 19.6037 103.691 20.3953V17.9267H108.097V35.2383H103.691V32.7072C103.128 33.5196 102.347 34.1967 101.347 34.7383C100.368 35.2591 99.2327 35.5195 97.9411 35.5195C96.4829 35.5195 95.1496 35.1445 93.9413 34.3946C92.7539 33.6446 91.806 32.5926 91.0977 31.2385C90.4103 29.8636 90.0666 28.2907 90.0666 26.52ZM103.691 26.5825C103.691 25.5201 103.483 24.6139 103.066 23.8639C102.649 23.0931 102.087 22.5098 101.378 22.114C100.67 21.6973 99.9098 21.489 99.0973 21.489C98.2849 21.489 97.5349 21.6869 96.8474 22.0827C96.16 22.4785 95.5975 23.0619 95.16 23.8326C94.7434 24.5826 94.5351 25.4784 94.5351 26.52C94.5351 27.5616 94.7434 28.4782 95.16 29.2699C95.5975 30.0406 96.16 30.6344 96.8474 31.051C97.5557 31.4677 98.3057 31.676 99.0973 31.676C99.9098 31.676 100.67 31.4781 101.378 31.0823C102.087 30.6656 102.649 30.0823 103.066 29.3323C103.483 28.5616 103.691 27.6449 103.691 26.5825ZM118.994 35.5195C117.578 35.5195 116.307 35.2695 115.182 34.7696C114.057 34.2488 113.161 33.5509 112.495 32.6759C111.849 31.801 111.495 30.8323 111.432 29.7698H115.838C115.921 30.4365 116.244 30.9885 116.807 31.426C117.39 31.8635 118.109 32.0822 118.963 32.0822C119.796 32.0822 120.442 31.9155 120.9 31.5822C121.379 31.2489 121.619 30.8219 121.619 30.301C121.619 29.7386 121.327 29.3219 120.744 29.0511C120.182 28.7595 119.275 28.447 118.026 28.1137C116.734 27.8012 115.671 27.4783 114.838 27.145C114.026 26.8117 113.317 26.3013 112.713 25.6138C112.13 24.9263 111.838 23.9993 111.838 22.8327C111.838 21.8744 112.109 20.9995 112.651 20.2078C113.213 19.4162 114.005 18.7912 115.026 18.3329C116.067 17.8746 117.286 17.6455 118.682 17.6455C120.744 17.6455 122.39 18.1663 123.619 19.2079C124.848 20.2287 125.525 21.614 125.65 23.3639H121.463C121.4 22.6765 121.109 22.1348 120.588 21.739C120.088 21.3224 119.411 21.114 118.557 21.114C117.765 21.114 117.151 21.2599 116.713 21.5515C116.296 21.8432 116.088 22.2494 116.088 22.7702C116.088 23.3535 116.38 23.8014 116.963 24.1139C117.546 24.4055 118.453 24.7076 119.682 25.0201C120.932 25.3326 121.963 25.6555 122.775 25.9888C123.588 26.3221 124.286 26.8429 124.869 27.5512C125.473 28.2387 125.786 29.1553 125.806 30.301C125.806 31.301 125.525 32.1968 124.963 32.9884C124.421 33.78 123.629 34.405 122.588 34.8633C121.567 35.3008 120.369 35.5195 118.994 35.5195ZM139.147 17.6767C140.459 17.6767 141.626 17.9684 142.647 18.5517C143.668 19.1141 144.459 19.9579 145.022 21.0828C145.605 22.1869 145.897 23.5202 145.897 25.0826V35.2383H141.522V25.6763C141.522 24.3014 141.178 23.2493 140.491 22.5202C139.803 21.7703 138.866 21.3953 137.678 21.3953C136.47 21.3953 135.512 21.7703 134.803 22.5202C134.116 23.2493 133.772 24.3014 133.772 25.6763V35.2383H129.397V12.1145H133.772V20.0828C134.335 19.3329 135.085 18.7496 136.022 18.3329C136.96 17.8955 138.001 17.6767 139.147 17.6767ZM157.994 21.5203H154.963V35.2383H150.525V21.5203H148.557V17.9267H150.525V17.0518C150.525 14.9269 151.13 13.3645 152.338 12.3645C153.546 11.3646 155.369 10.8958 157.806 10.9583V14.6456C156.744 14.6248 156.004 14.8019 155.588 15.1769C155.171 15.5518 154.963 16.2289 154.963 17.208V17.9267H157.994V21.5203ZM163.047 15.8643C162.277 15.8643 161.631 15.6248 161.11 15.1456C160.61 14.6456 160.36 14.0311 160.36 13.302C160.36 12.5728 160.61 11.9687 161.11 11.4896C161.631 10.9896 162.277 10.7396 163.047 10.7396C163.818 10.7396 164.454 10.9896 164.954 11.4896C165.474 11.9687 165.735 12.5728 165.735 13.302C165.735 14.0311 165.474 14.6456 164.954 15.1456C164.454 15.6248 163.818 15.8643 163.047 15.8643ZM165.204 17.9267V35.2383H160.829V17.9267H165.204ZM179.119 17.6767C181.182 17.6767 182.848 18.3329 184.119 19.6454C185.39 20.937 186.025 22.7494 186.025 25.0826V35.2383H181.65V25.6763C181.65 24.3014 181.307 23.2493 180.619 22.5202C179.932 21.7703 178.994 21.3953 177.807 21.3953C176.598 21.3953 175.64 21.7703 174.932 22.5202C174.244 23.2493 173.901 24.3014 173.901 25.6763V35.2383H169.526V17.9267H173.901V20.0828C174.484 19.3329 175.224 18.7496 176.119 18.3329C177.036 17.8955 178.036 17.6767 179.119 17.6767Z" fill="url(#paint1_linear_22471_5488)"/>
<defs>
<linearGradient id="paint0_linear_22471_5488" x1="2.50014" y1="0.908753" x2="27.42" y2="54.3908" gradientUnits="userSpaceOnUse">
<stop stop-color="#FF3E3E"/>
<stop offset="0.51" stop-color="#FF2D4E"/>
<stop offset="1" stop-color="#FF552B"/>
</linearGradient>
<linearGradient id="paint1_linear_22471_5488" x1="66.4113" y1="2.10155" x2="76.6146" y2="62.2046" gradientUnits="userSpaceOnUse">
<stop stop-color="#FF3E3E"/>
<stop offset="0.51" stop-color="#FF2D4E"/>
<stop offset="1" stop-color="#FF552B"/>
</linearGradient>
</defs>
</svg>
